Coordinates
version=1
nRows=11
nColumns=36
inDegrees=yes

Units are S.I. units (second, meters, Newtons, ...)
If the header above contains a line with 'inDegrees', this indicates whether rotational values are in degrees (yes) or radians (no).

endheader
time	pelvis_tilt	pelvis_list	pelvis_rotation	pelvis_tx	pelvis_ty	pelvis_tz	hip_flexion_r	hip_adduction_r	hip_rotation_r	knee_angle_r	knee_angle_r_beta	ankle_angle_r	subtalar_angle_r	mtp_angle_r	hip_flexion_l	hip_adduction_l	hip_rotation_l	knee_angle_l	knee_angle_l_beta	ankle_angle_l	subtalar_angle_l	mtp_angle_l	lumbar_extension	lumbar_bending	lumbar_rotation	arm_flex_r	arm_add_r	arm_rot_r	elbow_flex_r	pro_sup_r	arm_flex_l	arm_add_l	arm_rot_l	elbow_flex_l	pro_sup_l
      0.00000000	      0.65575358	     -1.85176379	      2.67689100	     -0.93938478	      1.24056093	     -0.03816541	     -5.47853733	      2.56243297	      2.33823775	      5.42560895	      0.09469474	      1.75645501	    -17.50370364	     -5.71825534	     -3.68007360	     -4.65255942	     -1.81755033	      8.24545960	      0.14391042	     11.47004623	     -3.31824202	     -5.71825534	     -7.76314635	      4.39459975	     -2.12646470	      7.48371766	     -9.06243309	     33.43743127	     34.77082623	     75.22036707	      6.52309446	     -7.44347274	     34.10401077	     32.49288752	     66.03154154
      0.00416670	     -1.58257393	     -0.70024048	      1.76749777	     -0.93824737	      1.24105468	     -0.03690847	     -1.82001779	      1.29968372	      2.95842384	      7.20685412	      0.12578333	      5.82494645	    -15.59418337	     -5.76828557	     -0.65758601	     -2.66159829	     -2.08966219	      8.95708743	      0.15633067	     11.29716626	     -1.98330711	     -5.76828557	     -5.52564971	      3.19260352	     -1.33340461	      7.17559881	     -9.49986589	     35.78112803	     35.18729074	     75.98677339	      6.27805438	     -7.94777585	     35.17458377	     33.79602816	     66.72691139
      0.00833330	     -2.34324315	      0.67240583	      1.40868692	     -0.93688726	      1.24091839	     -0.03662745	     -1.57405778	     -0.36697061	      1.19425702	      6.06812222	      0.10590871	      7.05832376	    -12.46734255	     -5.90687096	     -0.35133557	     -1.22588371	     -3.03819514	      8.33444183	      0.14546345	     11.03960420	     -1.31104632	     -5.90687096	     -4.27599891	      1.50522936	     -1.40110179	      8.06976480	     -9.76471971	     41.45086984	     34.65323653	     77.39034164	      6.84150265	     -9.58315830	     39.71903001	     34.10610657	     68.86616804
      0.01250000	     -1.91822271	      1.30823847	      1.17054733	     -0.93330977	      1.24665758	     -0.03617089	     -2.90443746	     -1.09177797	      0.89738824	      4.82042983	      0.08413237	      7.41083003	    -10.52444329	     -6.05926529	     -1.91791191	     -0.46088702	     -3.34874546	      6.98811228	      0.12196557	     10.31707916	     -1.17761797	     -6.05926529	     -4.58157828	      0.80866215	     -1.08400460	      8.15144056	     -9.88438497	     43.60504292	     34.32868337	     77.80817692	      7.17710274	    -10.18448547	     42.06244738	     33.82684872	     70.84659631
      0.01666670	     -1.53115906	      1.54967331	      1.07586980	     -0.93403617	      1.24348051	     -0.03632524	     -3.97352004	     -1.30697007	      0.97217499	      3.77465850	      0.06588022	      7.47605161	     -9.61787614	     -6.25622019	     -2.93970142	     -0.08050444	     -3.57451645	      6.11478580	      0.10672315	      9.93599042	     -0.98797465	     -6.25622019	     -5.04344017	      0.63808715	     -0.92882746	      8.17032755	     -9.98642716	     44.15496813	     34.48200493	     76.98602644	      7.32727074	    -10.39315396	     43.21861133	     33.83848407	     71.27325263
      0.02083330	     -1.22514221	      1.65390366	      1.08230865	     -0.93337366	      1.24748517	     -0.03653860	     -4.78466862	     -1.33461542	      1.13763856	      2.94145464	      0.05133807	      7.28149220	     -9.18425149	     -6.35534502	     -3.62062273	      0.12747347	     -3.50984028	      5.49056226	      0.09582839	      9.29526219	     -1.18747084	     -6.35534502	     -5.36017566	      0.56683355	     -0.90189576	      8.14519587	     -9.97532371	     44.08583042	     34.31876676	     76.20297586	      7.40873868	    -10.30401033	     43.62892443	     33.39627237	     71.16818872
      0.02500000	     -1.16256780	      1.64956557	      1.15490027	     -0.93265204	      1.24870905	     -0.03635347	     -5.22054923	     -1.28659266	      1.04758858	      2.29730934	      0.04009561	      6.89865214	     -8.80890689	     -6.47468030	     -3.92611196	      0.19766309	     -3.49855528	      4.99101197	      0.08710959	      8.64347742	     -1.33035589	     -6.47468030	     -5.43270084	      0.62828078	     -0.95094985	      7.99103900	    -10.08809593	     43.84104691	     34.64287807	     75.01690081	      7.41539833	    -10.28472170	     43.79112127	     33.39533952	     70.64835965
      0.02916670	     -0.94739845	      1.65715608	      1.14178437	     -0.93296688	      1.24958990	     -0.03623641	     -5.68786070	     -1.25833332	      1.15707391	      1.86643019	      0.03257535	      6.73120800	     -8.62099868	     -6.72281081	     -4.28941224	      0.23131053	     -3.57182337	      4.66818809	      0.08147525	      8.18467294	     -1.31572851	     -6.72281081	     -5.63738427	      0.58827490	     -0.64066587	      8.01617155	    -10.20393839	     44.53482272	     34.41176538	     74.07266287	      8.20658649	    -10.19322255	     46.12087839	     32.36664666	     71.73733897
      0.03333330	     -0.91681643	      1.62265226	      1.16416931	     -0.93369449	      1.24904227	     -0.03469181	     -5.87368881	     -1.16763206	      0.99305390	      1.57534150	      0.02749490	      6.70000436	     -8.30584615	     -6.84755553	     -4.41885627	      0.17870916	     -3.86430561	      4.37329965	      0.07632848	      7.78131420	     -1.20058904	     -6.84755553	     -5.68595287	      0.59331978	     -0.64312024	      7.97831651	    -10.14119808	     44.38942316	     34.42546200	     72.88461759	      8.30046292	    -10.17895345	     46.06290368	     32.23007043	     70.91713263
      0.03750000	     -0.83566384	      1.65583731	      1.21663833	     -0.93228736	      1.24971594	     -0.03503332	     -6.11376504	     -1.16347277	      0.88726407	      1.32736664	      0.02316692	      6.48040588	     -8.30085369	     -6.98746813	     -4.64223886	      0.20089797	     -3.83422790	      4.05215415	      0.07072343	      7.17245077	     -1.49683592	     -6.98746813	     -5.83886908	      0.47145371	     -0.72988359	      7.78208521	    -10.11906406	     44.05900936	     34.92342493	     71.16505362	      8.28296123	    -10.29714818	     45.72286889	     32.61098306	     69.55617756
      0.04166670	     -0.69468529	      1.61863664	      1.12183868	     -0.93207651	      1.25122603	     -0.03512899	     -6.34272266	     -1.11222311	      0.99578243	      1.16401674	      0.02031592	      6.27259288	     -8.34822055	     -7.11866219	     -4.89500868	      0.14194813	     -4.20213353	      3.86694869	      0.06749099	      6.94745945	     -1.38414114	     -7.11866219	     -6.04184202	      0.48448298	     -0.65064481	      7.80692362	    -10.20963717	     44.49879831	     35.14049552	     70.45515119	      8.51671899	    -10.36578982	     46.45075573	     32.55326096	     69.19647347
